<svg width="183" height="65" viewBox="0 0 183 65" fill="none" xmlns="http://www.w3.org/2000/svg">
<path fill-rule="evenodd" clip-rule="evenodd" d="M0.0294189 2.02929C0.0294189 0.924725 0.924849 0.0292969 2.02942 0.0292969H180.676C181.781 0.0292969 182.676 0.924727 182.676 2.0293L182.676 8.68284L170.5 12.1469L182.676 15.611V29.6828L170.5 33.1469L182.676 36.611V50.6828L170.5 54.1469L182.676 57.611L182.676 62.9705C182.676 64.075 181.781 64.9705 180.676 64.9705H2.02942C0.924851 64.9705 0.0294189 64.075 0.0294189 62.9705V51.4556L12 48L0.0294189 44.5444V33.4556L12 30L0.0294189 26.5444V15.4556L12 12L0.0294189 8.54439V2.02929Z" fill="#D9D9D9"/>
</svg>