<svg width="1051" height="1051" viewBox="0 0 1051 1051" fill="none" xmlns="http://www.w3.org/2000/svg">
<path d="M408.047 371.354C408.047 373.266 407.953 375.172 407.766 377.073C407.578 378.974 407.297 380.865 406.922 382.74C406.552 384.615 406.089 386.464 405.532 388.292C404.979 390.12 404.334 391.917 403.604 393.682C402.87 395.448 402.058 397.177 401.157 398.859C400.256 400.547 399.271 402.182 398.214 403.771C397.151 405.359 396.011 406.896 394.802 408.37C393.589 409.849 392.308 411.266 390.953 412.615C389.604 413.969 388.188 415.25 386.714 416.458C385.235 417.672 383.703 418.813 382.11 419.87C380.521 420.932 378.886 421.917 377.198 422.818C375.516 423.719 373.792 424.531 372.026 425.266C370.261 425.995 368.459 426.641 366.631 427.193C364.802 427.75 362.953 428.214 361.078 428.583C359.203 428.958 357.313 429.24 355.412 429.427C353.511 429.615 351.604 429.708 349.693 429.708C347.782 429.708 345.875 429.615 343.974 429.427C342.073 429.24 340.183 428.958 338.308 428.583C336.433 428.214 334.584 427.75 332.756 427.193C330.927 426.641 329.131 425.995 327.365 425.266C325.599 424.531 323.87 423.719 322.188 422.818C320.5 421.917 318.865 420.932 317.276 419.87C315.688 418.813 314.151 417.672 312.677 416.458C311.198 415.25 309.782 413.969 308.433 412.615C307.078 411.266 305.797 409.849 304.589 408.37C303.375 406.896 302.235 405.359 301.177 403.771C300.115 402.182 299.131 400.547 298.229 398.859C297.328 397.177 296.516 395.448 295.782 393.682C295.052 391.917 294.407 390.12 293.854 388.292C293.297 386.464 292.834 384.615 292.464 382.74C292.089 380.865 291.808 378.974 291.62 377.073C291.433 375.172 291.339 373.266 291.339 371.354C291.339 369.443 291.433 367.536 291.62 365.635C291.808 363.734 292.089 361.844 292.464 359.969C292.834 358.094 293.297 356.245 293.854 354.417C294.407 352.589 295.052 350.792 295.782 349.026C296.516 347.26 297.328 345.531 298.229 343.849C299.131 342.161 300.115 340.526 301.177 338.938C302.235 337.344 303.375 335.813 304.589 334.333C305.797 332.859 307.078 331.443 308.433 330.094C309.782 328.74 311.198 327.458 312.677 326.245C314.151 325.036 315.688 323.896 317.276 322.839C318.865 321.776 320.5 320.792 322.188 319.891C323.87 318.99 325.599 318.177 327.365 317.443C329.131 316.714 330.927 316.068 332.756 315.516C334.584 314.958 336.433 314.495 338.308 314.125C340.183 313.75 342.073 313.469 343.974 313.281C345.875 313.094 347.782 313 349.693 313C351.604 313 353.511 313.094 355.412 313.281C357.313 313.469 359.203 313.75 361.078 314.125C362.953 314.495 364.802 314.958 366.631 315.516C368.459 316.068 370.261 316.714 372.026 317.443C373.792 318.177 375.516 318.99 377.198 319.891C378.886 320.792 380.521 321.776 382.11 322.839C383.703 323.896 385.235 325.036 386.714 326.245C388.188 327.458 389.604 328.74 390.953 330.094C392.308 331.443 393.589 332.859 394.802 334.333C396.011 335.813 397.151 337.344 398.214 338.938C399.271 340.526 400.256 342.161 401.157 343.849C402.058 345.531 402.87 347.26 403.604 349.026C404.334 350.792 404.979 352.589 405.532 354.417C406.089 356.245 406.552 358.094 406.922 359.969C407.297 361.844 407.578 363.734 407.766 365.635C407.953 367.536 408.047 369.443 408.047 371.354Z" fill="black"/>
<path d="M758.156 371.354C758.156 373.266 758.063 375.172 757.875 377.073C757.688 378.974 757.411 380.865 757.036 382.74C756.661 384.615 756.198 386.464 755.646 388.292C755.089 390.12 754.448 391.917 753.719 393.682C752.984 395.448 752.167 397.177 751.266 398.859C750.365 400.547 749.385 402.182 748.323 403.771C747.26 405.359 746.125 406.896 744.911 408.37C743.698 409.849 742.417 411.266 741.068 412.615C739.714 413.969 738.302 415.25 736.823 416.458C735.349 417.672 733.813 418.813 732.224 419.87C730.635 420.932 729 421.917 727.313 422.818C725.625 423.719 723.901 424.531 722.135 425.266C720.37 425.995 718.573 426.641 716.745 427.193C714.917 427.75 713.063 428.214 711.188 428.583C709.318 428.958 707.427 429.24 705.526 429.427C703.625 429.615 701.719 429.708 699.807 429.708C697.896 429.708 695.99 429.615 694.089 429.427C692.182 429.24 690.297 428.958 688.422 428.583C686.547 428.214 684.698 427.75 682.87 427.193C681.036 426.641 679.24 425.995 677.474 425.266C675.708 424.531 673.984 423.719 672.297 422.818C670.615 421.917 668.974 420.932 667.385 419.87C665.797 418.813 664.266 417.672 662.786 416.458C661.313 415.25 659.896 413.969 658.547 412.615C657.193 411.266 655.911 409.849 654.698 408.37C653.484 406.896 652.349 405.359 651.286 403.771C650.224 402.182 649.245 400.547 648.344 398.859C647.443 397.177 646.625 395.448 645.896 393.682C645.167 391.917 644.521 390.12 643.969 388.292C643.411 386.464 642.948 384.615 642.573 382.74C642.203 380.865 641.922 378.974 641.734 377.073C641.547 375.172 641.453 373.266 641.453 371.354C641.453 369.443 641.547 367.536 641.734 365.635C641.922 363.734 642.203 361.844 642.573 359.969C642.948 358.094 643.411 356.245 643.969 354.417C644.521 352.589 645.167 350.792 645.896 349.026C646.625 347.26 647.443 345.531 648.344 343.849C649.245 342.161 650.224 340.526 651.286 338.938C652.349 337.344 653.484 335.813 654.698 334.333C655.911 332.859 657.193 331.443 658.547 330.094C659.896 328.74 661.313 327.458 662.786 326.245C664.266 325.036 665.797 323.896 667.385 322.839C668.974 321.776 670.615 320.792 672.297 319.891C673.984 318.99 675.708 318.177 677.474 317.443C679.24 316.714 681.036 316.068 682.87 315.516C684.698 314.958 686.547 314.495 688.422 314.125C690.297 313.75 692.182 313.469 694.089 313.281C695.99 313.094 697.896 313 699.807 313C701.719 313 703.625 313.094 705.526 313.281C707.427 313.469 709.318 313.75 711.188 314.125C713.063 314.495 714.917 314.958 716.745 315.516C718.573 316.068 720.37 316.714 722.135 317.443C723.901 318.177 725.625 318.99 727.313 319.891C729 320.792 730.635 321.776 732.224 322.839C733.813 323.896 735.349 325.036 736.823 326.245C738.302 327.458 739.714 328.74 741.068 330.094C742.417 331.443 743.698 332.859 744.911 334.333C746.125 335.813 747.26 337.344 748.323 338.938C749.385 340.526 750.365 342.161 751.266 343.849C752.167 345.531 752.984 347.26 753.719 349.026C754.448 350.792 755.089 352.589 755.646 354.417C756.198 356.245 756.661 358.094 757.036 359.969C757.411 361.844 757.688 363.734 757.875 365.635C758.063 367.536 758.156 369.443 758.156 371.354Z" fill="black"/>
<path d="M792.943 686.609C793.62 687.286 794.26 687.99 794.865 688.729C795.474 689.469 796.042 690.234 796.573 691.031C797.104 691.823 797.594 692.646 798.042 693.484C798.495 694.328 798.901 695.193 799.266 696.073C799.635 696.958 799.953 697.854 800.234 698.771C800.51 699.682 800.74 700.609 800.927 701.547C801.115 702.484 801.255 703.427 801.349 704.38C801.443 705.328 801.49 706.286 801.49 707.24C801.49 708.193 801.443 709.146 801.349 710.099C801.255 711.052 801.115 711.995 800.927 712.932C800.74 713.87 800.51 714.797 800.234 715.708C799.953 716.625 799.635 717.521 799.266 718.406C798.901 719.286 798.495 720.151 798.042 720.995C797.594 721.833 797.104 722.656 796.573 723.448C796.042 724.245 795.474 725.01 794.865 725.75C794.26 726.49 793.62 727.193 792.943 727.87C792.266 728.547 791.563 729.188 790.823 729.792C790.083 730.401 789.318 730.969 788.521 731.5C787.729 732.031 786.906 732.521 786.068 732.969C785.224 733.422 784.359 733.828 783.479 734.193C782.594 734.563 781.698 734.88 780.781 735.161C779.865 735.438 778.943 735.667 778.005 735.854C777.068 736.042 776.125 736.182 775.172 736.276C774.219 736.37 773.266 736.417 772.313 736.417C771.354 736.417 770.401 736.37 769.453 736.276C768.5 736.182 767.557 736.042 766.62 735.854C765.682 735.667 764.755 735.438 763.844 735.161C762.927 734.88 762.031 734.563 761.146 734.193C760.266 733.828 759.401 733.422 758.557 732.969C757.714 732.521 756.896 732.031 756.104 731.5C755.307 730.969 754.542 730.401 753.802 729.792C753.063 729.188 752.359 728.547 751.682 727.87C747.964 724.161 744.161 720.547 740.266 717.026C736.37 713.5 732.391 710.078 728.328 706.75C724.271 703.422 720.125 700.198 715.906 697.073C711.688 693.948 707.391 690.927 703.026 688.016C698.656 685.104 694.219 682.297 689.714 679.599C685.208 676.906 680.641 674.323 676.005 671.849C671.375 669.375 666.682 667.021 661.938 664.776C657.188 662.536 652.385 660.411 647.536 658.406C642.682 656.396 637.786 654.51 632.839 652.745C627.896 650.979 622.911 649.333 617.885 647.813C612.859 646.286 607.797 644.891 602.703 643.615C597.609 642.344 592.49 641.193 587.339 640.172C582.188 639.146 577.016 638.25 571.823 637.484C566.63 636.714 561.417 636.073 556.193 635.557C550.969 635.042 545.734 634.656 540.49 634.401C535.245 634.146 529.995 634.016 524.745 634.016C519.495 634.016 514.245 634.146 509 634.401C503.755 634.656 498.521 635.042 493.297 635.557C488.073 636.073 482.859 636.714 477.667 637.484C472.474 638.25 467.302 639.146 462.151 640.172C457 641.193 451.88 642.344 446.786 643.615C441.693 644.891 436.63 646.286 431.604 647.813C426.578 649.333 421.594 650.979 416.651 652.745C411.708 654.51 406.807 656.396 401.953 658.406C397.104 660.411 392.302 662.536 387.557 664.776C382.807 667.021 378.115 669.375 373.484 671.849C368.854 674.323 364.281 676.906 359.776 679.599C355.271 682.297 350.833 685.104 346.464 688.016C342.099 690.927 337.802 693.948 333.583 697.073C329.365 700.198 325.224 703.422 321.161 706.75C317.099 710.078 313.12 713.5 309.224 717.026C305.333 720.547 301.526 724.161 297.807 727.87C297.135 728.547 296.427 729.188 295.688 729.792C294.948 730.401 294.182 730.969 293.385 731.5C292.594 732.031 291.776 732.521 290.932 732.969C290.089 733.422 289.224 733.828 288.344 734.193C287.458 734.563 286.563 734.88 285.646 735.161C284.734 735.438 283.807 735.667 282.87 735.854C281.932 736.042 280.99 736.182 280.036 736.276C279.089 736.37 278.135 736.417 277.177 736.417C276.224 736.417 275.271 736.37 274.318 736.276C273.37 736.182 272.422 736.042 271.484 735.854C270.547 735.667 269.625 735.438 268.708 735.161C267.792 734.88 266.896 734.563 266.01 734.193C265.13 733.828 264.266 733.422 263.427 732.969C262.583 732.521 261.766 732.031 260.969 731.5C260.172 730.969 259.406 730.401 258.667 729.792C257.932 729.188 257.224 728.547 256.547 727.87C255.87 727.193 255.229 726.49 254.625 725.75C254.021 725.01 253.448 724.245 252.917 723.448C252.391 722.656 251.896 721.833 251.448 720.995C250.995 720.151 250.589 719.286 250.224 718.406C249.859 717.521 249.536 716.625 249.26 715.708C248.979 714.797 248.75 713.87 248.563 712.932C248.375 711.995 248.234 711.052 248.141 710.099C248.047 709.146 248 708.193 248 707.24C248 706.286 248.047 705.328 248.141 704.38C248.234 703.427 248.375 702.484 248.563 701.547C248.75 700.609 248.979 699.682 249.26 698.771C249.536 697.854 249.859 696.958 250.224 696.073C250.589 695.193 250.995 694.328 251.448 693.484C251.896 692.646 252.391 691.823 252.917 691.031C253.448 690.234 254.021 689.469 254.625 688.729C255.229 687.99 255.87 687.286 256.547 686.609C260.938 682.224 265.438 677.953 270.042 673.792C274.641 669.625 279.344 665.578 284.146 661.646C288.943 657.714 293.839 653.901 298.828 650.208C303.813 646.521 308.891 642.953 314.052 639.505C319.214 636.063 324.458 632.75 329.781 629.563C335.109 626.375 340.505 623.323 345.984 620.401C351.458 617.479 357 614.693 362.609 612.042C368.224 609.396 373.896 606.885 379.63 604.51C385.365 602.141 391.151 599.911 396.995 597.823C402.839 595.734 408.734 593.792 414.672 591.99C420.609 590.193 426.589 588.542 432.609 587.036C438.63 585.531 444.682 584.172 450.771 582.964C456.854 581.755 462.969 580.693 469.109 579.786C475.245 578.875 481.401 578.12 487.578 577.51C493.755 576.901 499.943 576.448 506.141 576.141C512.339 575.839 518.542 575.688 524.745 575.688C530.953 575.688 537.151 575.839 543.349 576.141C549.547 576.448 555.734 576.901 561.911 577.51C568.089 578.12 574.245 578.875 580.38 579.786C586.521 580.693 592.635 581.755 598.719 582.964C604.807 584.172 610.859 585.531 616.88 587.036C622.901 588.542 628.88 590.193 634.818 591.99C640.76 593.792 646.651 595.734 652.495 597.823C658.339 599.911 664.125 602.141 669.859 604.51C675.594 606.885 681.266 609.396 686.88 612.042C692.49 614.693 698.031 617.479 703.51 620.401C708.984 623.323 714.38 626.375 719.708 629.563C725.031 632.75 730.276 636.063 735.438 639.505C740.599 642.953 745.677 646.521 750.661 650.208C755.651 653.901 760.547 657.714 765.344 661.646C770.146 665.578 774.849 669.625 779.448 673.792C784.052 677.953 788.552 682.224 792.943 686.609Z" fill="black"/>
<mask id="mask0_1020_1260" style="mask-type:luminance" maskUnits="userSpaceOnUse" x="0" y="0" width="1051" height="1051">
<path d="M0 0H1050.34V1050.34H0V0Z" fill="white"/>
</mask>
<g mask="url(#mask0_1020_1260)">
<path d="M525.172 58.349C516.245 58.3385 507.323 58.5885 498.412 59.0885C489.5 59.5885 480.609 60.3438 471.74 61.3542C462.87 62.3646 454.037 63.6302 445.24 65.1458C436.443 66.6615 427.698 68.4323 419 70.4479C410.307 72.4636 401.677 74.7292 393.109 77.2448C384.542 79.7552 376.057 82.5104 367.646 85.5104C359.24 88.5104 350.927 91.7448 342.703 95.2188C334.479 98.6979 326.365 102.401 318.354 106.344C310.344 110.281 302.453 114.448 294.682 118.844C286.911 123.234 279.271 127.844 271.76 132.677C264.255 137.505 256.891 142.547 249.677 147.797C242.458 153.047 235.396 158.505 228.49 164.161C221.583 169.818 214.844 175.667 208.271 181.708C201.703 187.75 195.307 193.974 189.094 200.385C182.88 206.792 176.854 213.375 171.021 220.13C165.182 226.88 159.542 233.797 154.104 240.875C148.661 247.953 143.427 255.177 138.401 262.557C133.375 269.932 128.563 277.448 123.969 285.099C119.37 292.755 115 300.531 110.849 308.432C106.698 316.339 102.776 324.354 99.0833 332.479C95.3958 340.609 91.9375 348.833 88.7188 357.162C85.5 365.484 82.5208 373.896 79.7813 382.396C77.0417 390.891 74.5521 399.458 72.3021 408.099C70.0573 416.734 68.0573 425.432 66.3125 434.188C64.5625 442.943 63.0677 451.74 61.8229 460.578C60.5781 469.417 59.5833 478.287 58.849 487.182C58.1094 496.078 57.6302 504.99 57.4063 513.912C57.1771 522.833 57.2083 531.76 57.4948 540.682C57.776 549.604 58.3177 558.51 59.1146 567.401C59.9115 576.292 60.9583 585.151 62.2604 593.984C63.5625 602.813 65.1198 611.599 66.9271 620.344C68.7344 629.083 70.7865 637.766 73.0938 646.391C75.3958 655.016 77.9427 663.568 80.7396 672.047C83.5313 680.526 86.5677 688.917 89.8438 697.219C93.1198 705.526 96.625 713.729 100.37 721.833C104.115 729.932 108.089 737.922 112.292 745.797C116.495 753.677 120.922 761.422 125.568 769.047C130.214 776.667 135.073 784.151 140.151 791.495C145.224 798.839 150.505 806.031 155.995 813.073C161.479 820.109 167.167 826.99 173.047 833.703C178.927 840.422 185 846.964 191.255 853.328C197.51 859.698 203.943 865.88 210.552 871.88C217.167 877.875 223.943 883.682 230.885 889.292C237.828 894.901 244.927 900.313 252.177 905.516C259.432 910.719 266.828 915.708 274.365 920.49C281.906 925.271 289.578 929.833 297.375 934.172C305.177 938.511 313.094 942.625 321.13 946.516C329.167 950.401 337.307 954.052 345.552 957.474C353.797 960.896 362.135 964.078 370.563 967.021C378.99 969.964 387.495 972.662 396.078 975.12C404.662 977.573 413.302 979.781 422.016 981.745C430.724 983.703 439.479 985.412 448.287 986.87C457.094 988.328 465.932 989.537 474.813 990.484C483.688 991.438 492.583 992.136 501.5 992.578C510.412 993.021 519.333 993.208 528.26 993.136C537.188 993.068 546.104 992.745 555.01 992.167C563.922 991.583 572.807 990.75 581.667 989.662C590.526 988.573 599.349 987.229 608.13 985.636C616.912 984.042 625.641 982.198 634.323 980.104C643 978.011 651.609 975.667 660.151 973.078C668.698 970.495 677.156 967.662 685.537 964.589C693.922 961.516 702.208 958.208 710.396 954.662C718.589 951.115 726.672 947.333 734.646 943.323C742.625 939.313 750.479 935.078 758.208 930.615C765.943 926.156 773.542 921.479 781.005 916.583C788.469 911.688 795.787 906.578 802.958 901.266C810.13 895.948 817.146 890.432 824 884.714C830.854 879 837.542 873.089 844.057 866.99C850.578 860.891 856.912 854.609 863.073 848.146C869.229 841.682 875.198 835.047 880.974 828.24C886.75 821.438 892.328 814.474 897.703 807.349C903.083 800.224 908.255 792.948 913.214 785.526C918.177 778.109 922.922 770.552 927.448 762.859C931.979 755.167 936.281 747.349 940.365 739.412C944.443 731.469 948.292 723.422 951.912 715.261C955.531 707.099 958.917 698.844 962.063 690.49C965.208 682.135 968.115 673.698 970.776 665.177C973.438 656.656 975.854 648.068 978.026 639.412C980.198 630.75 982.12 622.037 983.787 613.266C985.458 604.5 986.88 595.688 988.047 586.839C989.214 577.99 990.125 569.115 990.781 560.208C991.443 551.307 991.844 542.396 991.99 533.469C992.141 524.542 992.031 515.62 991.667 506.703C991.302 497.781 990.682 488.88 989.813 479.995C988.938 471.115 987.807 462.26 986.427 453.443C985.047 444.625 983.417 435.849 981.531 427.125C979.646 418.401 977.516 409.734 975.136 401.13C972.755 392.526 970.13 384 967.261 375.547C964.396 367.094 961.287 358.729 957.938 350.453C954.589 342.177 951.005 334.005 947.193 325.938C943.375 317.865 939.333 309.911 935.057 302.073C930.787 294.234 926.297 286.526 921.578 278.948C916.865 271.365 911.943 263.927 906.802 256.625C901.662 249.328 896.318 242.182 890.766 235.193C885.219 228.198 879.474 221.37 873.531 214.708C867.594 208.047 861.464 201.557 855.151 195.245C849.75 189.844 844.224 184.578 838.563 179.448C832.901 174.318 827.12 169.328 821.219 164.479C815.313 159.635 809.297 154.938 803.162 150.385C797.026 145.833 790.787 141.432 784.432 137.188C778.083 132.943 771.636 128.854 765.083 124.927C758.531 120.995 751.891 117.229 745.156 113.625C738.422 110.021 731.599 106.589 724.698 103.318C717.792 100.047 710.813 96.9479 703.761 94.0208C696.703 91.0938 689.578 88.3438 682.391 85.7656C675.198 83.1875 667.948 80.7865 660.641 78.5677C653.333 76.3438 645.974 74.3021 638.568 72.4375C631.162 70.5781 623.708 68.901 616.219 67.401C608.729 65.9063 601.208 64.5938 593.651 63.4688C586.099 62.3385 578.521 61.401 570.917 60.6458C563.318 59.8854 555.703 59.3177 548.073 58.9375C540.443 58.5521 532.813 58.3594 525.172 58.349ZM525.172 0C533.766 0 542.354 0.208334 550.943 0.630208C559.526 1.05208 568.094 1.6875 576.646 2.52604C585.198 3.36979 593.729 4.42187 602.229 5.68229C610.729 6.94271 619.198 8.41146 627.625 10.0885C636.057 11.7656 644.438 13.651 652.776 15.7396C661.115 17.8281 669.396 20.1198 677.62 22.6146C685.844 25.1094 694.005 27.8021 702.094 30.6979C710.188 33.5938 718.203 36.6875 726.146 39.974C734.083 43.2656 741.943 46.7448 749.708 50.4219C757.479 54.0938 765.156 57.9583 772.734 62.0104C780.313 66.0625 787.792 70.2969 795.162 74.7136C802.537 79.1354 809.792 83.7292 816.938 88.5052C824.083 93.2813 831.109 98.2292 838.016 103.349C844.917 108.469 851.693 113.755 858.333 119.208C864.979 124.661 871.484 130.271 877.854 136.042C884.224 141.813 890.443 147.74 896.521 153.818C902.599 159.896 908.526 166.12 914.297 172.484C920.068 178.854 925.682 185.359 931.13 192.005C936.583 198.646 941.87 205.422 946.99 212.323C952.109 219.229 957.057 226.255 961.833 233.401C966.609 240.547 971.203 247.807 975.625 255.177C980.042 262.547 984.276 270.026 988.328 277.604C992.38 285.182 996.245 292.859 999.917 300.63C1003.59 308.401 1007.07 316.255 1010.36 324.193C1013.65 332.135 1016.74 340.151 1019.64 348.245C1022.54 356.333 1025.23 364.495 1027.73 372.719C1030.22 380.943 1032.52 389.224 1034.6 397.563C1036.69 405.901 1038.57 414.281 1040.25 422.714C1041.93 431.141 1043.4 439.609 1044.66 448.109C1045.92 456.609 1046.97 465.141 1047.81 473.693C1048.66 482.245 1049.29 490.813 1049.71 499.401C1050.13 507.984 1050.34 516.573 1050.34 525.167C1050.34 533.76 1050.13 542.354 1049.71 550.938C1049.29 559.521 1048.66 568.089 1047.81 576.646C1046.97 585.198 1045.92 593.724 1044.66 602.224C1043.4 610.729 1041.93 619.193 1040.25 627.625C1038.57 636.052 1036.69 644.438 1034.6 652.771C1032.52 661.109 1030.22 669.391 1027.73 677.615C1025.23 685.839 1022.54 694 1019.64 702.094C1016.74 710.182 1013.65 718.203 1010.36 726.141C1007.07 734.083 1003.59 741.938 999.917 749.708C996.245 757.474 992.38 765.151 988.328 772.729C984.276 780.313 980.042 787.787 975.625 795.156C971.203 802.531 966.609 809.792 961.833 816.938C957.057 824.083 952.109 831.109 946.99 838.011C941.87 844.912 936.583 851.688 931.13 858.333C925.682 864.974 920.068 871.479 914.297 877.849C908.526 884.219 902.599 890.443 896.521 896.521C890.443 902.594 884.224 908.521 877.854 914.292C871.484 920.063 864.979 925.677 858.333 931.13C851.693 936.583 844.917 941.87 838.016 946.99C831.109 952.109 824.083 957.057 816.938 961.828C809.792 966.604 802.537 971.203 795.162 975.62C787.792 980.037 780.313 984.276 772.734 988.323C765.156 992.375 757.479 996.24 749.708 999.917C741.943 1003.59 734.083 1007.07 726.146 1010.36C718.203 1013.65 710.188 1016.74 702.094 1019.64C694.005 1022.53 685.844 1025.23 677.62 1027.72C669.396 1030.22 661.115 1032.51 652.776 1034.6C644.438 1036.69 636.057 1038.57 627.625 1040.24C619.198 1041.92 610.729 1043.39 602.229 1044.65C593.729 1045.91 585.198 1046.96 576.646 1047.81C568.094 1048.65 559.526 1049.28 550.943 1049.7C542.354 1050.13 533.766 1050.34 525.172 1050.34C516.578 1050.34 507.99 1050.13 499.401 1049.7C490.818 1049.28 482.25 1048.65 473.698 1047.81C465.141 1046.96 456.615 1045.91 448.115 1044.65C439.609 1043.39 431.146 1041.92 422.714 1040.24C414.287 1038.57 405.901 1036.69 397.568 1034.6C389.229 1032.51 380.948 1030.22 372.724 1027.72C364.5 1025.23 356.339 1022.53 348.245 1019.64C340.156 1016.74 332.141 1013.65 324.198 1010.36C316.255 1007.07 308.401 1003.59 300.63 999.917C292.865 996.24 285.188 992.375 277.609 988.323C270.026 984.276 262.552 980.037 255.182 975.62C247.807 971.203 240.547 966.604 233.401 961.828C226.255 957.057 219.234 952.109 212.328 946.99C205.427 941.87 198.651 936.583 192.005 931.13C185.365 925.677 178.859 920.063 172.49 914.292C166.12 908.521 159.896 902.594 153.823 896.521C147.745 890.443 141.818 884.219 136.047 877.849C130.276 871.479 124.661 864.974 119.208 858.333C113.755 851.688 108.474 844.912 103.354 838.011C98.2292 831.109 93.2865 824.083 88.5104 816.938C83.7344 809.792 79.1354 802.531 74.7188 795.156C70.3021 787.787 66.0677 780.313 62.0156 772.729C57.9635 765.151 54.099 757.474 50.4219 749.708C46.75 741.938 43.2656 734.083 39.9792 726.141C36.6875 718.203 33.599 710.182 30.7031 702.094C27.8073 694 25.1094 685.839 22.6146 677.615C20.1198 669.391 17.8281 661.109 15.7396 652.771C13.651 644.438 11.7708 636.052 10.0938 627.625C8.41667 619.193 6.94792 610.729 5.6875 602.224C4.42708 593.724 3.375 585.198 2.53125 576.646C1.6875 568.089 1.05729 559.521 0.635417 550.938C0.213541 542.354 0 533.76 0 525.167C0.0104173 516.578 0.234376 507.99 0.661458 499.406C1.09375 490.828 1.73438 482.26 2.58333 473.708C3.43229 465.162 4.49479 456.635 5.76042 448.141C7.03125 439.641 8.50521 431.177 10.1875 422.755C11.875 414.328 13.7604 405.948 15.8542 397.615C17.9479 389.281 20.2448 381.005 22.7448 372.787C25.2448 364.563 27.9479 356.412 30.8438 348.323C33.7448 340.234 36.8438 332.219 40.1354 324.286C43.4271 316.349 46.9115 308.5 50.5885 300.734C54.2656 292.969 58.1302 285.297 62.1875 277.719C66.2396 270.146 70.474 262.672 74.8958 255.302C79.3125 247.938 83.9115 240.682 88.6875 233.536C93.4636 226.396 98.4115 219.375 103.531 212.474C108.651 205.573 113.938 198.802 119.391 192.161C124.839 185.521 130.453 179.016 136.224 172.651C141.995 166.286 147.917 160.063 153.99 153.99C160.068 147.911 166.286 141.99 172.656 136.219C179.021 130.448 185.521 124.839 192.167 119.385C198.807 113.932 205.578 108.646 212.474 103.526C219.375 98.4063 226.396 93.4583 233.542 88.6823C240.682 83.9115 247.938 79.3125 255.307 74.8906C262.677 70.474 270.146 66.2344 277.724 62.1823C285.302 58.1302 292.969 54.2604 300.734 50.5833C308.5 46.9063 316.354 43.4219 324.286 40.1302C332.224 36.8385 340.234 33.7396 348.323 30.8438C356.412 27.9427 364.568 25.2448 372.787 22.7448C381.01 20.2448 389.287 17.9479 397.62 15.8542C405.953 13.7604 414.333 11.8698 422.755 10.1875C431.182 8.50521 439.646 7.02604 448.141 5.76042C456.641 4.48958 465.162 3.43229 473.714 2.57813C482.266 1.72917 490.828 1.08854 499.412 0.65625C507.995 0.229167 516.578 0.0104173 525.172 0Z" fill="black"/>
</g>
</svg>
