<svg width="18" height="20" viewBox="0 0 18 20" class="icon icon-filter" fill="none" xmlns="http://www.w3.org/2000/svg">
<path d="M1 3L7 3M7 3C7 4.10457 7.89543 5 9 5C10.1046 5 11 4.10457 11 3M7 3C7 1.89543 7.89543 1 9 1C10.1046 1 11 1.89543 11 3M11 3L17 3M1 10H13M13 10C13 11.1046 13.8954 12 15 12C16.1046 12 17 11.1046 17 10C17 8.89543 16.1046 8 15 8C13.8954 8 13 8.89543 13 10ZM5 17H17M5 17C5 15.8954 4.10457 15 3 15C1.89543 15 1 15.8954 1 17C1 18.1046 1.89543 19 3 19C4.10457 19 5 18.1046 5 17Z" stroke="#454545" stroke-linecap="round"/>
<path d="M1 3L7 3M7 3C7 4.10457 7.89543 5 9 5C10.1046 5 11 4.10457 11 3M7 3C7 1.89543 7.89543 1 9 1C10.1046 1 11 1.89543 11 3M11 3L17 3M1 10H13M13 10C13 11.1046 13.8954 12 15 12C16.1046 12 17 11.1046 17 10C17 8.89543 16.1046 8 15 8C13.8954 8 13 8.89543 13 10ZM5 17H17M5 17C5 15.8954 4.10457 15 3 15C1.89543 15 1 15.8954 1 17C1 18.1046 1.89543 19 3 19C4.10457 19 5 18.1046 5 17Z" stroke="black" stroke-opacity="0.2" stroke-linecap="round"/>
<path d="M1 3L7 3M7 3C7 4.10457 7.89543 5 9 5C10.1046 5 11 4.10457 11 3M7 3C7 1.89543 7.89543 1 9 1C10.1046 1 11 1.89543 11 3M11 3L17 3M1 10H13M13 10C13 11.1046 13.8954 12 15 12C16.1046 12 17 11.1046 17 10C17 8.89543 16.1046 8 15 8C13.8954 8 13 8.89543 13 10ZM5 17H17M5 17C5 15.8954 4.10457 15 3 15C1.89543 15 1 15.8954 1 17C1 18.1046 1.89543 19 3 19C4.10457 19 5 18.1046 5 17Z" stroke="black" stroke-opacity="0.2" stroke-linecap="round"/>
<path d="M1 3L7 3M7 3C7 4.10457 7.89543 5 9 5C10.1046 5 11 4.10457 11 3M7 3C7 1.89543 7.89543 1 9 1C10.1046 1 11 1.89543 11 3M11 3L17 3M1 10H13M13 10C13 11.1046 13.8954 12 15 12C16.1046 12 17 11.1046 17 10C17 8.89543 16.1046 8 15 8C13.8954 8 13 8.89543 13 10ZM5 17H17M5 17C5 15.8954 4.10457 15 3 15C1.89543 15 1 15.8954 1 17C1 18.1046 1.89543 19 3 19C4.10457 19 5 18.1046 5 17Z" stroke="black" stroke-opacity="0.2" stroke-linecap="round"/>
<path d="M1 3L7 3M7 3C7 4.10457 7.89543 5 9 5C10.1046 5 11 4.10457 11 3M7 3C7 1.89543 7.89543 1 9 1C10.1046 1 11 1.89543 11 3M11 3L17 3M1 10H13M13 10C13 11.1046 13.8954 12 15 12C16.1046 12 17 11.1046 17 10C17 8.89543 16.1046 8 15 8C13.8954 8 13 8.89543 13 10ZM5 17H17M5 17C5 15.8954 4.10457 15 3 15C1.89543 15 1 15.8954 1 17C1 18.1046 1.89543 19 3 19C4.10457 19 5 18.1046 5 17Z" stroke="black" stroke-opacity="0.2" stroke-linecap="round"/>
</svg>
