<svg width="24" height="26" viewBox="0 0 24 26" fill="none" xmlns="http://www.w3.org/2000/svg" > <path d="M8.00001 19.6667V21C8.00001 21.5253 8.10347 22.0454 8.30449 22.5307C8.50551 23.016 8.80015 23.457 9.17158 23.8284C9.54302 24.1999 9.98397 24.4945 10.4693 24.6955C10.9546 24.8965 11.4747 25 12 25C12.5253 25 13.0454 24.8965 13.5307 24.6955C14.016 24.4945 14.457 24.1999 14.8284 23.8284C15.1999 23.457 15.4945 23.016 15.6955 22.5307C15.8965 22.0454 16 21.5253 16 21V19.6667M20 9C20 13 22.6667 19.6667 22.6667 19.6667H1.33334C1.33334 19.6667 4.00001 14.3333 4.00001 9C4.00001 4.64266 7.64268 1 12 1C16.3573 1 20 4.64267 20 9Z" stroke="#454545" stroke-width="1.5" stroke-linecap="round" stroke-linejoin="round" /> </svg>