<svg width="28" height="26" viewBox="0 0 28 26" fill="none" xmlns="http://www.w3.org/2000/svg" > <path d="M1.66666 1H4.99999L7.66666 19.6667H21.6667M21.6667 19.6667C20.1939 19.6667 19 20.8606 19 22.3333C19 23.8061 20.1939 25 21.6667 25C23.1394 25 24.3333 23.8061 24.3333 22.3333C24.3333 20.8606 23.1394 19.6667 21.6667 19.6667ZM7.09522 15.6667H23L27 3.66667H5.38093M13.6667 22.3333C13.6667 23.8061 12.4727 25 11 25C9.52723 25 8.33332 23.8061 8.33332 22.3333C8.33332 20.8606 9.52723 19.6667 11 19.6667C12.4727 19.6667 13.6667 20.8606 13.6667 22.3333Z" stroke="currentColor" stroke-width="1.5" stroke-linecap="round" stroke-linejoin="round" /> </svg>