<svg width="27" height="26" viewBox="0 0 27 26" fill="none" xmlns="http://www.w3.org/2000/svg">
<path d="M0.666504 1H3.99984L6.6665 19.6667H20.6665M20.6665 19.6667C19.1937 19.6667 17.9998 20.8606 17.9998 22.3333C17.9998 23.8061 19.1937 25 20.6665 25C22.1393 25 23.3332 23.8061 23.3332 22.3333C23.3332 20.8606 22.1393 19.6667 20.6665 19.6667ZM6.09506 15.6667H21.9998L25.9998 3.66667H4.38078M12.6665 22.3333C12.6665 23.8061 11.4726 25 9.99984 25C8.52708 25 7.33317 23.8061 7.33317 22.3333C7.33317 20.8606 8.52708 19.6667 9.99984 19.6667C11.4726 19.6667 12.6665 20.8606 12.6665 22.3333Z" stroke="#454545" stroke-linecap="round" stroke-linejoin="round"/>
</svg>
